<svg width="29" height="29" viewBox="0 0 29 29" fill="none" xmlns="http://www.w3.org/2000/svg">
<path d="M12.3125 6.66992V7.10742H16.6875V6.66992C16.6875 6.08976 16.457 5.53336 16.0468 5.12313C15.6366 4.71289 15.0802 4.48242 14.5 4.48242C13.9198 4.48242 13.3634 4.71289 12.9532 5.12313C12.543 5.53336 12.3125 6.08976 12.3125 6.66992ZM10.5625 7.10742V6.66992C10.5625 5.62563 10.9773 4.62411 11.7158 3.88569C12.4542 3.14726 13.4557 2.73242 14.5 2.73242C15.5443 2.73242 16.5458 3.14726 17.2842 3.88569C18.0227 4.62411 18.4375 5.62563 18.4375 6.66992V7.10742H25C25.2321 7.10742 25.4546 7.19961 25.6187 7.3637C25.7828 7.5278 25.875 7.75036 25.875 7.98242C25.875 8.21449 25.7828 8.43705 25.6187 8.60114C25.4546 8.76523 25.2321 8.85742 25 8.85742H23.6805L22.025 23.3544C21.9029 24.4221 21.3922 25.4075 20.5901 26.1227C19.7881 26.8379 18.7509 27.2329 17.6762 27.2324H11.3237C10.2491 27.2329 9.21191 26.8379 8.40987 26.1227C7.60783 25.4075 7.09708 24.4221 6.975 23.3544L5.3195 8.85742H4C3.76794 8.85742 3.54538 8.76523 3.38128 8.60114C3.21719 8.43705 3.125 8.21449 3.125 7.98242C3.125 7.75036 3.21719 7.5278 3.38128 7.3637C3.54538 7.19961 3.76794 7.10742 4 7.10742H10.5625ZM8.7145 23.1549C8.78755 23.7953 9.09368 24.3865 9.57456 24.8157C10.0554 25.245 10.6774 25.4823 11.322 25.4824H17.6771C18.3217 25.4823 18.9437 25.245 19.4246 24.8157C19.9054 24.3865 20.2116 23.7953 20.2846 23.1549L21.92 8.85742H7.08087L8.7145 23.1549ZM11.875 11.9199C12.1071 11.9199 12.3296 12.0121 12.4937 12.1762C12.6578 12.3403 12.75 12.5629 12.75 12.7949V21.5449C12.75 21.777 12.6578 21.9995 12.4937 22.1636C12.3296 22.3277 12.1071 22.4199 11.875 22.4199C11.6429 22.4199 11.4204 22.3277 11.2563 22.1636C11.0922 21.9995 11 21.777 11 21.5449V12.7949C11 12.5629 11.0922 12.3403 11.2563 12.1762C11.4204 12.0121 11.6429 11.9199 11.875 11.9199ZM18 12.7949C18 12.5629 17.9078 12.3403 17.7437 12.1762C17.5796 12.0121 17.3571 11.9199 17.125 11.9199C16.8929 11.9199 16.6704 12.0121 16.5063 12.1762C16.3422 12.3403 16.25 12.5629 16.25 12.7949V21.5449C16.25 21.777 16.3422 21.9995 16.5063 22.1636C16.6704 22.3277 16.8929 22.4199 17.125 22.4199C17.3571 22.4199 17.5796 22.3277 17.7437 22.1636C17.9078 21.9995 18 21.777 18 21.5449V12.7949Z" fill="#939393"/>
</svg>
