<svg width="161" height="29" viewBox="0 0 161 29" fill="none" xmlns="http://www.w3.org/2000/svg">
<path d="M15.1307 3.06131C15.66 1.87791 17.34 1.87791 17.8693 3.06131L20.5773 9.11582C20.7954 9.60334 21.2562 9.93815 21.7873 9.99488L28.3823 10.6995C29.6713 10.8372 30.1905 12.4349 29.2286 13.304L24.3072 17.7505C23.9109 18.1085 23.7349 18.6502 23.8451 19.1728L25.2129 25.6628C25.4803 26.9313 24.1212 27.9187 22.9974 27.2725L17.2478 23.966C16.7848 23.6998 16.2152 23.6998 15.7522 23.966L10.0026 27.2725C8.87878 27.9187 7.51971 26.9313 7.78707 25.6628L9.15494 19.1728C9.26508 18.6502 9.08906 18.1085 8.69279 17.7505L3.77145 13.304C2.80953 12.4349 3.32866 10.8372 4.6177 10.6995L11.2127 9.99488C11.7438 9.93815 12.2046 9.60334 12.4227 9.11582L15.1307 3.06131Z" fill="#F5BD36" fill-opacity="0.38"/>
<path d="M47.1307 3.06131C47.66 1.87791 49.34 1.87791 49.8693 3.06131L52.5773 9.11582C52.7954 9.60334 53.2562 9.93815 53.7873 9.99488L60.3823 10.6995C61.6713 10.8372 62.1905 12.4349 61.2286 13.304L56.3072 17.7505C55.9109 18.1085 55.7349 18.6502 55.8451 19.1728L57.2129 25.6628C57.4803 26.9313 56.1212 27.9187 54.9974 27.2725L49.2478 23.966C48.7848 23.6998 48.2152 23.6998 47.7522 23.966L42.0026 27.2725C40.8788 27.9187 39.5197 26.9313 39.7871 25.6628L41.1549 19.1728C41.2651 18.6502 41.0891 18.1085 40.6928 17.7505L35.7714 13.304C34.8095 12.4349 35.3287 10.8372 36.6177 10.6995L43.2127 9.99488C43.7438 9.93815 44.2046 9.60334 44.4227 9.11582L47.1307 3.06131Z" fill="#FEAE6F"/>
<path d="M79.1307 3.06131C79.66 1.87791 81.34 1.87791 81.8693 3.06131L84.5773 9.11582C84.7954 9.60334 85.2562 9.93815 85.7873 9.99488L92.3823 10.6995C93.6713 10.8372 94.1905 12.4349 93.2286 13.304L88.3072 17.7505C87.9109 18.1085 87.7349 18.6502 87.8451 19.1728L89.2129 25.6628C89.4803 26.9313 88.1212 27.9187 86.9974 27.2725L81.2478 23.966C80.7848 23.6998 80.2152 23.6998 79.7522 23.966L74.0026 27.2725C72.8788 27.9187 71.5197 26.9313 71.7871 25.6628L73.1549 19.1728C73.2651 18.6502 73.0891 18.1085 72.6928 17.7505L67.7714 13.304C66.8095 12.4349 67.3287 10.8372 68.6177 10.6995L75.2127 9.99488C75.7438 9.93815 76.2046 9.60334 76.4227 9.11582L79.1307 3.06131Z" fill="#FEAE6F"/>
<path d="M111.131 3.06131C111.66 1.87791 113.34 1.87791 113.869 3.06131L116.577 9.11582C116.795 9.60334 117.256 9.93815 117.787 9.99488L124.382 10.6995C125.671 10.8372 126.19 12.4349 125.229 13.304L120.307 17.7505C119.911 18.1085 119.735 18.6502 119.845 19.1728L121.213 25.6628C121.48 26.9313 120.121 27.9187 118.997 27.2725L113.248 23.966C112.785 23.6998 112.215 23.6998 111.752 23.966L106.003 27.2725C104.879 27.9187 103.52 26.9313 103.787 25.6628L105.155 19.1728C105.265 18.6502 105.089 18.1085 104.693 17.7505L99.7714 13.304C98.8095 12.4349 99.3287 10.8372 100.618 10.6995L107.213 9.99488C107.744 9.93815 108.205 9.60334 108.423 9.11582L111.131 3.06131Z" fill="#FEAE6F"/>
<path d="M143.131 3.06131C143.66 1.87791 145.34 1.87791 145.869 3.06131L148.577 9.11582C148.795 9.60334 149.256 9.93815 149.787 9.99488L156.382 10.6995C157.671 10.8372 158.19 12.4349 157.229 13.304L152.307 17.7505C151.911 18.1085 151.735 18.6502 151.845 19.1728L153.213 25.6628C153.48 26.9313 152.121 27.9187 150.997 27.2725L145.248 23.966C144.785 23.6998 144.215 23.6998 143.752 23.966L138.003 27.2725C136.879 27.9187 135.52 26.9313 135.787 25.6628L137.155 19.1728C137.265 18.6502 137.089 18.1085 136.693 17.7505L131.771 13.304C130.81 12.4349 131.329 10.8372 132.618 10.6995L139.213 9.99488C139.744 9.93815 140.205 9.60334 140.423 9.11582L143.131 3.06131Z" fill="#FEAE6F"/>
</svg>
