<svg width="104" height="21" viewBox="0 0 104 21" fill="none" xmlns="http://www.w3.org/2000/svg">
<path d="M9.88212 2.11573C10.2303 1.31285 11.3689 1.31285 11.717 2.11573L13.3616 5.9083C13.5065 6.24245 13.8216 6.4714 14.1842 6.50595L18.2994 6.89807C19.1705 6.98109 19.5224 8.06396 18.8664 8.64318L15.7676 11.3792C15.4946 11.6203 15.3742 11.9907 15.4534 12.3463L16.3521 16.3812C16.5424 17.2354 15.6213 17.9046 14.8677 17.4597L11.308 15.3581C10.9943 15.173 10.6048 15.173 10.2912 15.3581L6.73147 17.4597C5.97788 17.9046 5.05674 17.2354 5.24699 16.3812L6.14571 12.3463C6.22489 11.9907 6.10453 11.6203 5.8315 11.3792L2.73277 8.64318C2.07677 8.06396 2.42862 6.98109 3.29979 6.89807L7.41493 6.50595C7.77751 6.4714 8.09263 6.24245 8.23753 5.9083L9.88212 2.11573Z" fill="#FEAE6F"/>
<path d="M30.4759 2.11573C30.824 1.31285 31.9626 1.31285 32.3108 2.11573L33.9554 5.9083C34.1003 6.24245 34.4154 6.4714 34.778 6.50595L38.8931 6.89807C39.7643 6.98109 40.1161 8.06396 39.4601 8.64318L36.3614 11.3792C36.0884 11.6203 35.968 11.9907 36.0472 12.3463L36.9459 16.3812C37.1362 17.2354 36.215 17.9046 35.4614 17.4597L31.9017 15.3581C31.5881 15.173 31.1986 15.173 30.8849 15.3581L27.3252 17.4597C26.5716 17.9046 25.6505 17.2354 25.8407 16.3812L26.7395 12.3463C26.8186 11.9907 26.6983 11.6203 26.4253 11.3792L23.3265 8.64318C22.6705 8.06396 23.0224 6.98109 23.8935 6.89807L28.0087 6.50595C28.3713 6.4714 28.6864 6.24245 28.8313 5.9083L30.4759 2.11573Z" fill="#FEAE6F"/>
<path d="M51.0828 2.11573C51.431 1.31285 52.5696 1.31285 52.9177 2.11573L54.5623 5.9083C54.7072 6.24245 55.0223 6.4714 55.3849 6.50595L59.5 6.89807C60.3712 6.98109 60.7231 8.06396 60.0671 8.64318L56.9683 11.3792C56.6953 11.6203 56.5749 11.9907 56.6541 12.3463L57.5528 16.3812C57.7431 17.2354 56.8219 17.9046 56.0684 17.4597L52.5086 15.3581C52.195 15.173 51.8055 15.173 51.4919 15.3581L47.9322 17.4597C47.1786 17.9046 46.2574 17.2354 46.4477 16.3812L47.3464 12.3463C47.4256 11.9907 47.3052 11.6203 47.0322 11.3792L43.9335 8.64318C43.2775 8.06396 43.6293 6.98109 44.5005 6.89807L48.6156 6.50595C48.9782 6.4714 49.2933 6.24245 49.4382 5.9083L51.0828 2.11573Z" fill="#FEAE6F"/>
<path d="M71.678 2.11573C72.0262 1.31285 73.1648 1.31285 73.5129 2.11573L75.1575 5.9083C75.3024 6.24245 75.6175 6.4714 75.9801 6.50595L80.0953 6.89807C80.9664 6.98109 81.3183 8.06396 80.6623 8.64318L77.5635 11.3792C77.2905 11.6203 77.1701 11.9907 77.2493 12.3463L78.148 16.3812C78.3383 17.2354 77.4172 17.9046 76.6636 17.4597L73.1039 15.3581C72.7902 15.173 72.4007 15.173 72.0871 15.3581L68.5274 17.4597C67.7738 17.9046 66.8526 17.2354 67.0429 16.3812L67.9416 12.3463C68.0208 11.9907 67.9004 11.6203 67.6274 11.3792L64.5287 8.64318C63.8727 8.06396 64.2245 6.98109 65.0957 6.89807L69.2108 6.50595C69.5734 6.4714 69.8885 6.24245 70.0334 5.9083L71.678 2.11573Z" fill="#FEAE6F"/>
<path d="M92.2825 2.11573C92.6307 1.31285 93.7693 1.31285 94.1174 2.11573L95.762 5.9083C95.9069 6.24245 96.222 6.4714 96.5846 6.50595L100.7 6.89807C101.571 6.98109 101.923 8.06396 101.267 8.64318L98.168 11.3792C97.895 11.6203 97.7746 11.9907 97.8538 12.3463L98.7525 16.3812C98.9428 17.2354 98.0216 17.9046 97.2681 17.4597L93.7084 15.3581C93.3947 15.173 93.0052 15.173 92.6916 15.3581L89.1319 17.4597C88.3783 17.9046 87.4571 17.2354 87.6474 16.3812L88.5461 12.3463C88.6253 11.9907 88.5049 11.6203 88.2319 11.3792L85.1332 8.64318C84.4772 8.06396 84.829 6.98109 85.7002 6.89807L89.8153 6.50595C90.1779 6.4714 90.493 6.24245 90.6379 5.9083L92.2825 2.11573Z" fill="#FEAE6F"/>
</svg>
